<svg width="35" height="34" viewBox="0 0 35 34" fill="none" xmlns="http://www.w3.org/2000/svg">
<rect width="35" height="33.5" fill="#FFF7ED"/>
<rect x="0.25" y="0.25" width="34.5" height="33" fill="#FFF7ED"/>
<rect x="0.25" y="0.25" width="34.5" height="33" stroke="#06B6D4" stroke-width="0.5"/>
<path d="M8.57273 12.4545C9.53636 12.5636 10.4273 12.2909 10.9545 11.8364C11.7727 11.1273 12.1909 9.81818 12.1727 8.43636C12.1545 7.56364 11.9 6.69091 11.4818 5.94545C11.2455 5.54545 10.9545 5.18182 10.6273 4.85455C9.75455 4 8.59091 3.45455 7.37273 3.34545C6.71818 3.29091 5.97273 3.23636 5.40909 3.56364C4.20909 4.27273 3.95455 5.54545 3.82727 6.74545C3.71818 7.81818 3.95455 8.92727 4.48182 9.87273C4.60909 10.0909 4.75455 10.2909 4.9 10.4727C5.79091 11.5818 7.15455 12.2909 8.57273 12.4545ZM13.3364 4.76364L13.4273 4.92727C13.8818 5.70909 14.1364 6.6 14.1545 7.49091C14.1727 8.89091 13.5909 10.2909 12.5909 11.2545C12.3182 11.5091 12.0091 11.7455 11.6636 11.9455L9.77273 13.0364C8.88182 13.5455 7.80909 13.8 6.77273 13.6909C5.35455 13.5818 3.99091 12.8364 3.1 11.7273C2.93636 11.5091 2.77273 11.2909 2.62727 11.0364L2.53636 10.8727C1.99091 9.90909 1.73636 8.78182 1.84545 7.67273C1.99091 6.29091 2.73636 4.98182 3.84545 4.14545C3.99091 4.03636 4.13636 3.94545 4.3 3.85455L6.19091 2.76364C7.1 2.23636 8.15455 2.01818 9.17273 2.10909C10.3909 2.2 11.5545 2.74545 12.4273 3.6C12.7727 3.94545 13.0818 4.34545 13.3364 4.76364ZM6.42727 7.69091L8.1 6.29091L9.13636 7.50909L9.26364 7.65455L7.59091 9.05455L6.55455 7.83636L6.42727 7.69091ZM14.891 6.70909L14.8001 6.56364L15.2001 6.21818L17.0183 5.03636C17.291 5.07273 17.5455 5.23636 17.7092 5.47273L17.8001 5.61818C17.8728 5.74545 17.9273 5.87273 17.9637 6C18.0001 6.14545 18.0183 6.27273 18.0364 6.41818L18.0728 6.74545L18.8183 6.2L20.6364 5.01818C21.2183 5.10909 21.7455 5.4 22.1273 5.81818C22.2183 5.92727 22.3092 6.03636 22.3819 6.14545L22.4728 6.29091C22.7273 6.67273 22.8728 7.10909 22.9092 7.54545C22.9455 8.03636 22.8546 8.54545 22.6546 9C22.4546 9.47273 22.1637 9.87273 21.8183 10.2364C21.4183 10.6727 20.9455 11.0182 20.4546 11.3455L18.6183 12.5273C18.2546 12.7636 17.9092 12.9636 17.5637 13.1636L11.5455 16.7091L11.4546 16.5636L13.2728 15.3818L16.7637 13.3273L16.1092 7.45455C16.091 7.30909 16.0728 7.18182 16.0364 7.03636C16.0001 6.94545 15.9637 6.83636 15.9273 6.74545C15.7819 6.58182 15.6001 6.45455 15.3819 6.38182L14.891 6.70909ZM18.1092 7.05455L18.6728 12.1818L19.2546 11.8545C19.4728 11.6909 19.691 11.4909 19.891 11.2727C20.2364 10.9091 20.5273 10.5091 20.7273 10.0364C20.9273 9.58182 21.0183 9.07273 20.9819 8.58182C20.9455 8.16364 20.8183 7.76364 20.6001 7.4C20.5455 7.32727 20.4728 7.23636 20.4001 7.16364C20.0546 6.78182 19.6001 6.50909 19.091 6.38182L18.891 6.54545L18.1092 7.05455ZM25.5124 9.36364C25.5487 9.49091 25.6033 9.6 25.6578 9.72727C25.7669 10 25.9305 10.2727 26.1305 10.5091C26.3124 10.7273 26.5487 10.9273 26.7851 11.0909C27.3305 11.4545 27.9851 11.6727 28.6396 11.7091L29.2214 11.2364L29.3487 11.3818L27.676 12.7818L27.0942 13.2545C26.4214 13.2182 25.7669 13 25.2214 12.6364C24.9669 12.4545 24.7305 12.2364 24.5124 11.9818L24.3851 11.8364C24.1851 11.5818 24.0033 11.2909 23.8578 10.9818C23.8033 10.8364 23.7305 10.6727 23.6942 10.5273C23.5124 9.87273 23.5124 9.18182 23.6942 8.52727C23.8942 7.85455 24.2942 7.25455 24.8396 6.8L26.5124 5.4C26.6214 5.30909 26.7305 5.21818 26.8396 5.14545L28.8396 6.38182L28.9669 6.52727L27.2942 7.92727L25.5124 9.36364ZM25.4578 9.14545L26.0214 8.67273L27.0942 7.8L25.6214 6.89091C25.5669 7.01818 25.5305 7.14545 25.4942 7.27273C25.3124 7.87273 25.2942 8.52727 25.4578 9.14545ZM31.3709 3.42909L31.4727 3.53091L33.189 5.87273L31.9672 7.09455L31.8654 6.99273L30.149 4.65091L31.3709 3.42909ZM8.57273 28.4545C9.53636 28.5636 10.4273 28.2909 10.9545 27.8364C11.7727 27.1273 12.1909 25.8182 12.1727 24.4364C12.1545 23.5636 11.9 22.6909 11.4818 21.9455C11.2455 21.5455 10.9545 21.1818 10.6273 20.8545C9.75455 20 8.59091 19.4545 7.37273 19.3455C6.71818 19.2909 5.97273 19.2364 5.40909 19.5636C4.20909 20.2727 3.95455 21.5455 3.82727 22.7455C3.71818 23.8182 3.95455 24.9273 4.48182 25.8727C4.60909 26.0909 4.75455 26.2909 4.9 26.4727C5.79091 27.5818 7.15455 28.2909 8.57273 28.4545ZM13.3364 20.7636L13.4273 20.9273C13.8818 21.7091 14.1364 22.6 14.1545 23.4909C14.1727 24.8909 13.5909 26.2909 12.5909 27.2545C12.3182 27.5091 12.0091 27.7455 11.6636 27.9455L9.77273 29.0364C8.88182 29.5455 7.80909 29.8 6.77273 29.6909C5.35455 29.5818 3.99091 28.8364 3.1 27.7273C2.93636 27.5091 2.77273 27.2909 2.62727 27.0364L2.53636 26.8727C1.99091 25.9091 1.73636 24.7818 1.84545 23.6727C1.99091 22.2909 2.73636 20.9818 3.84545 20.1455C3.99091 20.0364 4.13636 19.9455 4.3 19.8545L6.19091 18.7636C7.1 18.2364 8.15455 18.0182 9.17273 18.1091C10.3909 18.2 11.5545 18.7455 12.4273 19.6C12.7727 19.9455 13.0818 20.3455 13.3364 20.7636ZM6.42727 23.6909L8.1 22.2909L9.13636 23.5091L9.26364 23.6545L7.59091 25.0545L6.55455 23.8364L6.42727 23.6909ZM14.891 22.7091L14.8001 22.5636L15.2001 22.2182L17.0183 21.0364C17.291 21.0727 17.5455 21.2364 17.7092 21.4727L17.8001 21.6182C17.8728 21.7455 17.9273 21.8727 17.9637 22C18.0001 22.1455 18.0183 22.2727 18.0364 22.4182L18.0728 22.7455L18.8183 22.2L20.6364 21.0182C21.2183 21.1091 21.7455 21.4 22.1273 21.8182C22.2183 21.9273 22.3092 22.0364 22.3819 22.1455L22.4728 22.2909C22.7273 22.6727 22.8728 23.1091 22.9092 23.5455C22.9455 24.0364 22.8546 24.5455 22.6546 25C22.4546 25.4727 22.1637 25.8727 21.8183 26.2364C21.4183 26.6727 20.9455 27.0182 20.4546 27.3455L18.6183 28.5273C18.2546 28.7636 17.9092 28.9636 17.5637 29.1636L11.5455 32.7091L11.4546 32.5636L13.2728 31.3818L16.7637 29.3273L16.1092 23.4545C16.091 23.3091 16.0728 23.1818 16.0364 23.0364C16.0001 22.9455 15.9637 22.8364 15.9273 22.7455C15.7819 22.5818 15.6001 22.4545 15.3819 22.3818L14.891 22.7091ZM18.1092 23.0545L18.6728 28.1818L19.2546 27.8545C19.4728 27.6909 19.691 27.4909 19.891 27.2727C20.2364 26.9091 20.5273 26.5091 20.7273 26.0364C20.9273 25.5818 21.0183 25.0727 20.9819 24.5818C20.9455 24.1636 20.8183 23.7636 20.6001 23.4C20.5455 23.3273 20.4728 23.2364 20.4001 23.1636C20.0546 22.7818 19.6001 22.5091 19.091 22.3818L18.891 22.5455L18.1092 23.0545ZM25.5124 25.3636C25.5487 25.4909 25.6033 25.6 25.6578 25.7273C25.7669 26 25.9305 26.2727 26.1305 26.5091C26.3124 26.7273 26.5487 26.9273 26.7851 27.0909C27.3305 27.4545 27.9851 27.6727 28.6396 27.7091L29.2214 27.2364L29.3487 27.3818L27.676 28.7818L27.0942 29.2545C26.4214 29.2182 25.7669 29 25.2214 28.6364C24.9669 28.4545 24.7305 28.2364 24.5124 27.9818L24.3851 27.8364C24.1851 27.5818 24.0033 27.2909 23.8578 26.9818C23.8033 26.8364 23.7305 26.6727 23.6942 26.5273C23.5124 25.8727 23.5124 25.1818 23.6942 24.5273C23.8942 23.8545 24.2942 23.2545 24.8396 22.8L26.5124 21.4C26.6214 21.3091 26.7305 21.2182 26.8396 21.1455L28.8396 22.3818L28.9669 22.5273L27.2942 23.9273L25.5124 25.3636ZM25.4578 25.1455L26.0214 24.6727L27.0942 23.8L25.6214 22.8909C25.5669 23.0182 25.5305 23.1455 25.4942 23.2727C25.3124 23.8727 25.2942 24.5273 25.4578 25.1455ZM31.3709 19.4291L31.4727 19.5309L33.189 21.8727L31.9672 23.0945L31.8654 22.9927L30.149 20.6509L31.3709 19.4291Z" fill="#F43F5E"/>
</svg>
